<?xml version="1.0" standalone="no"?>
<!DOCTYPE svg PUBLIC "-//W3C//DTD SVG 20010904//EN"
 "http://www.w3.org/TR/2001/REC-SVG-20010904/DTD/svg10.dtd">
<svg version="1.0" xmlns="http://www.w3.org/2000/svg"
 width="1280.000000pt" height="1280.000000pt" viewBox="0 0 1280.000000 1280.000000"
 preserveAspectRatio="xMidYMid meet">
<metadata>
Created by potrace 1.14, written by Peter Selinger 2001-2017
</metadata>
<g transform="translate(0.000000,1280.000000) scale(0.100000,-0.100000)"
fill="#000000" stroke="none">
<path d="M0 6400 l0 -6400 6400 0 6400 0 0 6400 0 6400 -6400 0 -6400 0 0
-6400z m2814 1954 c14 -13 16 -47 16 -215 l0 -200 596 -599 c328 -330 601
-597 605 -594 5 3 9 363 9 804 0 780 0 800 19 810 30 16 942 14 964 -2 16 -12
17 -139 15 -1978 l-3 -1965 -495 0 -495 0 -3 384 -2 383 -573 576 c-623 626
-608 611 -622 612 -7 0 -12 -335 -15 -977 l-5 -978 -497 -3 -498 -2 -5 22 c-3
13 -4 900 -3 1971 3 1718 5 1949 18 1957 9 6 207 10 487 10 415 0 473 -2 487
-16z m5897 6 c18 -10 19 -26 19 -488 l0 -477 -500 -500 c-275 -275 -500 -505
-500 -510 0 -5 225 -235 500 -510 l500 -501 -2 -479 -3 -480 -1605 0 -1605 0
-3 482 c-2 428 0 483 14 497 14 14 99 16 810 16 501 0 794 4 794 10 0 5 -207
217 -460 470 -253 254 -460 469 -460 478 0 9 216 233 480 497 264 264 480 483
480 487 0 5 -361 8 -802 9 -442 1 -814 4 -828 8 l-25 7 -3 481 c-2 428 0 483
14 497 14 14 168 16 1590 16 1067 0 1582 -3 1595 -10z m2262 -2 c16 -12 17
-139 15 -1978 l-3 -1965 -495 0 -495 0 -5 1470 -5 1470 -355 5 c-195 3 -361 9
-367 13 -17 11 -19 947 -3 978 10 19 30 19 853 19 659 0 847 -3 860 -12z"/>
</g>
</svg>
