<?xml version="1.0" encoding="UTF-8"?>
<!DOCTYPE svg  PUBLIC '-//W3C//DTD SVG 1.1//EN'  'http://www.w3.org/Graphics/SVG/1.1/DTD/svg11.dtd'>
<svg enable-background="new 0 0 30.457 30.457" version="1.1" viewBox="0 0 30.457 30.457" xml:space="preserve" xmlns="http://www.w3.org/2000/svg">
	<path d="m29.693 14.49c-0.469-0.174-1-0.035-1.32 0.353-1.795 2.189-4.443 3.446-7.27 3.446-5.183 0-9.396-4.216-9.396-9.397 0-2.608 1.051-5.036 2.963-6.835 0.366-0.347 0.471-0.885 0.264-1.343-0.207-0.456-0.682-0.736-1.184-0.684-7.84 0.761-13.75 7.281-13.75 15.164 0 8.402 6.836 15.238 15.238 15.238 8.303 0 14.989-6.506 15.219-14.812 0.014-0.502-0.293-0.956-0.764-1.13z"/>
</svg>
