<?xml version="1.0" encoding="UTF-8"?>
<svg version="1.1" viewBox="0 0 126.88 121.94" xmlns="http://www.w3.org/2000/svg">
  <title>newsletter</title>
  <path
    d="m16.45-0.3267c-3.1561 0.053536-6.214 1.8615-7.7336 4.6355-1.0911 1.8089-1.2645 3.972-1.1844 6.0387-0.00651 7.2134 0.013023 14.453-0.00977 21.65-2.4343-0.08506-4.6976 1.432-5.9531 3.4551-1.1495 1.8013-1.5746 3.9685-1.457 6.0855 0.00651 24.146-0.013023 48.293 0.00977 72.438 0.07011 2.371 1.2366 4.6902 3.1566 6.0965 1.6084 1.283 3.7211 1.7114 5.7438 1.6145 36.765-7e-3 73.531 0.0147 110.29-0.011 2.3607-0.0821 4.6573-1.2544 6.0611-3.1619 1.2831-1.606 1.7127-3.7164 1.6149-5.7373-9e-3 -24.289 0.018-48.581-0.0135-72.869-0.19514-2.7653-1.6083-5.4945-3.9716-7.0067-1.1274-0.662-2.4646-1.0635-3.7766-0.89619-0.016-7.9724 0.0318-15.947-0.0234-23.918-0.22407-3.5457-2.7454-6.7817-6.1016-7.916-2.3656-0.80797-4.9043-0.4064-7.3551-0.50391-29.767 0.00391-59.535-0.00781-89.301 0.00586zm92.582 10.164v29.602c-15.355 13.413-30.711 26.827-46.066 40.24-15.033-13.429-30.06-26.864-45.094-40.293v-29.549h91.16zm-79.322 9.7871c-1.6229 0.07179-3.1418 0.99033-4.006 2.3588-0.88132 1.4397-1.0056 3.3303-0.23317 4.8462 0.74377 1.5847 2.3964 2.704 4.15 2.7988 4.9666 0.06877 9.9417 0.0096 14.912 0.02937 1.5936-0.06634 3.1491-0.87567 4.0234-2.2255 0.87268-1.2434 1.0853-2.9134 0.61718-4.3506-0.49142-1.5477-1.7703-2.7762-3.3149-3.2574-1.7796-0.41198-3.6411-0.13773-5.4566-0.21719-3.5634 0.01191-7.13-0.0237-10.691 0.01758zm28.371 0c-1.623 0.07068-3.139 0.99069-4.0066 2.3564-0.88063 1.4392-1.0065 3.3283-0.23603 4.8454 0.64343 1.3728 1.9781 2.4037 3.4594 2.7104 2.0006 0.25771 4.0314 0.05837 6.0449 0.12109 1.9505-0.0572 3.9164 0.11909 5.8565-0.0962 1.7669-0.26341 3.32-1.5999 3.8789-3.2963 0.59648-1.6475 0.21926-3.6084-0.95417-4.917-1.051-1.277-2.7559-1.8418-4.3812-1.7413-3.2201 0.01201-6.4436-0.02383-9.6617 0.01758zm24.109 0c-1.6229 0.07179-3.1418 0.99033-4.006 2.3588-0.90273 1.4673-1.0015 3.3924-0.19905 4.9284 0.78515 1.5694 2.4462 2.6517 4.2051 2.7285 4.9816 0.02931 9.9715 0.02936 14.953 0 1.623-0.07068 3.139-0.99069 4.0066-2.3564 0.88063-1.4392 1.0065-3.3283 0.23603-4.8454-0.64343-1.3728-1.9781-2.4037-3.4594-2.7104-2.0006-0.25771-4.0314-0.05836-6.0449-0.12109-3.23 0.01195-6.4634-0.02375-9.6914 0.01758zm-41.338 16.98c-1.6144 0.06907-3.1234 0.98571-3.985 2.3447-0.8572 1.4038-1.0111 3.2485-0.2688 4.7366 0.60504 1.3979 1.9404 2.4293 3.4112 2.7738 2.0194 0.26767 4.0696 0.06372 6.1023 0.12736 2.7415-0.02947 5.4909 0.05866 8.2276-0.04349 1.679-0.11141 3.2331-1.1988 3.9853-2.6889 0.72667-1.4009 0.72666-3.1342 0-4.5352-0.75444-1.4955-2.3163-2.5831-4.0012-2.691-3.4085-0.09723-6.8291-0.01336-10.242-0.04141-1.0758 0.01243-2.1556-0.02443-3.2293 0.01758zm31.85 0c-1.6153 0.06788-3.1233 0.98609-3.9851 2.3446-0.8774 1.4339-1.0052 3.3155-0.23176 4.8257 0.64012 1.3644 1.9678 2.39 3.4415 2.693 1.9977 0.25421 4.0249 0.05697 6.0352 0.11914 2.7487-0.02931 5.5052 0.05846 8.2491-0.04355 1.6814-0.10991 3.2359-1.2015 3.9872-2.6928 0.7451-1.4331 0.70875-3.1947-0.03778-4.6199-0.80432-1.4761-2.3703-2.5332-4.0665-2.6155-4.4172-0.06615-8.8426-0.0092-13.263-0.02823l-0.09908 0.01351zm44.57 64.99c-10.758-9.4284-21.516-18.857-32.273-28.285 10.667-9.3092 21.316-18.641 31.994-27.936 0.56949-0.47788 0.1518 0.93607 0.2793 1.3052v54.916zm-75.658-28.021c-10.594 9.293-21.188 18.586-31.781 27.879v-56.248l31.781 28.369zm14.434-20.02c-1.6217 0.07188-3.1344 0.99241-4.0004 2.3566-0.87994 1.4398-1.0076 3.3278-0.23638 4.8451 0.74227 1.5858 2.3956 2.7062 4.1495 2.8023 4.897 0.06824 9.8024 0.0095 14.703 0.02915 1.5932-0.06566 3.1466-0.87702 4.0195-2.2255 0.87149-1.2422 1.0861-2.9111 0.61718-4.3467-0.4902-1.5458-1.7655-2.7794-3.3094-3.2604-1.7807-0.41364-3.642-0.13832-5.4582-0.21808-3.4943 0.01194-6.992-0.02373-10.484 0.01758zm58.248 58.354h-101.67c12.095-10.597 24.19-21.194 36.285-31.791l10.123 9.0449c0.10222 0.5393 0.93394 0.68551 1.3202 1.0715 1.0169 0.70538 2.3549 0.8973 3.5529 0.65898 1.8611-0.35971 3.0652-1.954 4.4821-3.0732 3.0808-2.6911 6.1617-5.3822 9.2425-8.0733 12.222 10.721 24.444 21.441 36.666 32.162z"
    stroke-width="16.9" />
</svg>